<?xml version="1.0" encoding="iso-8859-1"?>
<!-- Generator: Adobe Illustrator 19.0.0, SVG Export Plug-In . SVG Version: 6.00 Build 0)  -->
<svg version="1.1" id="Layer_1" xmlns="http://www.w3.org/2000/svg" xmlns:xlink="http://www.w3.org/1999/xlink" x="0px" y="0px"
	 viewBox="0 0 512 512" style="enable-background:new 0 0 512 512;" xml:space="preserve">
<g>
	<path style="fill:#50C8EF;" d="M256.919,48.709c83.22,0.364,157.87,50.148,190.198,126.84l20.109-8.474
		C431.491,82.299,348.959,27.269,256.965,26.885L256.919,0l-65.464,37.796l65.464,37.788V48.709z"/>
	<path style="fill:#50C8EF;" d="M48.709,255.071c0.364-83.22,50.148-157.87,126.84-190.198l-8.474-20.109
		C82.296,80.499,27.269,163.031,26.885,255.025l-26.877,0.046l37.788,65.467l37.796-65.467H48.709z"/>
	<path style="fill:#50C8EF;" d="M255.071,463.293c-83.21-0.366-157.862-50.15-190.188-126.84l-20.109,8.474
		c35.732,84.777,118.262,139.804,210.25,140.191L255.071,512l65.467-37.798l-65.467-37.796V463.293z"/>
	<path style="fill:#50C8EF;" d="M511.992,256.929l-37.798-65.467l-37.788,65.467h26.877
		c-0.366,83.21-50.153,157.862-126.843,190.188l8.476,20.109c84.777-35.735,139.804-118.262,140.188-210.25L511.992,256.929z"/>
</g>
<g>
</g>
<g>
</g>
<g>
</g>
<g>
</g>
<g>
</g>
<g>
</g>
<g>
</g>
<g>
</g>
<g>
</g>
<g>
</g>
<g>
</g>
<g>
</g>
<g>
</g>
<g>
</g>
<g>
</g>
</svg>
