<?xml version="1.0" standalone="no"?>
<!DOCTYPE svg PUBLIC "-//W3C//DTD SVG 20010904//EN"
 "http://www.w3.org/TR/2001/REC-SVG-20010904/DTD/svg10.dtd">
<svg version="1.0" xmlns="http://www.w3.org/2000/svg"
 width="32.000000pt" height="32.000000pt" viewBox="0 0 32.000000 32.000000"
 preserveAspectRatio="xMidYMid meet">

<g transform="translate(0.000000,32.000000) scale(0.100000,-0.100000)"
fill="#000000" stroke="none">
<path d="M0 312 c0 -4 16 -23 35 -42 25 -24 32 -37 24 -46 -5 -7 -9 -39 -7
-71 l3 -58 35 -3 c23 -2 54 -19 92 -48 31 -24 59 -44 62 -44 3 0 6 12 6 27 l0
27 30 -29 c16 -16 33 -25 37 -21 7 7 -295 316 -309 316 -5 0 -8 -4 -8 -8z"/>
<path d="M190 284 c-25 -20 -48 -39 -52 -43 -4 -4 19 -33 52 -66 l60 -59 0
102 c0 56 -3 102 -7 101 -5 0 -28 -16 -53 -35z"/>
</g>
</svg>
