<?xml version="1.0" encoding="iso-8859-1"?>
<!-- Generator: Adobe Illustrator 19.1.0, SVG Export Plug-In . SVG Version: 6.00 Build 0)  -->
<svg version="1.1" id="Capa_1" xmlns="http://www.w3.org/2000/svg" xmlns:xlink="http://www.w3.org/1999/xlink" x="0px" y="0px"
	 viewBox="0 0 209.311 209.311" style="enable-background:new 0 0 209.311 209.311;" xml:space="preserve">
<g>
	<path d="M126.243,0.013L28.921,0l-0.405,0.006c-1.748,0.026-3.515,0.212-5.238,0.566c-0.726,0.135-1.427,0.353-2.108,0.578
		L20.226,1.44c-0.791,0.219-1.581,0.443-2.397,0.784c-0.797,0.341-1.542,0.746-2.275,1.163l-0.88,0.469
		c-0.63,0.315-1.24,0.643-1.8,1.022c-1.607,1.073-3.091,2.288-4.435,3.631c-1.311,1.33-2.519,2.802-3.567,4.364
		c-0.405,0.623-0.746,1.26-1.073,1.909l-0.405,0.746c-0.424,0.765-0.848,1.523-1.176,2.32c-0.334,0.791-0.572,1.607-0.797,2.416
		l-0.296,0.983c-0.219,0.668-0.418,1.343-0.553,1.999c-0.289,1.459-0.469,2.976-0.533,4.563L0,126.255
		c0,7.719,3.001,14.981,8.471,20.45c5.456,5.463,12.719,8.471,20.45,8.464c7.719,0,14.987-3.001,20.45-8.464
		c5.469-5.463,8.471-12.725,8.471-20.45V98.742l102.11,102.11c11.279,11.279,29.621,11.279,40.9,0
		c11.279-11.279,11.279-29.615-0.006-40.894L98.736,57.854l27.507-0.006c7.719,0,14.981-3.001,20.45-8.464
		c5.463-5.463,8.471-12.725,8.471-20.457c0.006-7.712-3.001-14.981-8.471-20.45C141.237,3.021,133.968,0.013,126.243,0.013z
		 M142.31,28.927c0,4.3-1.671,8.329-4.704,11.363c-3.033,3.04-7.076,4.711-11.363,4.704H67.701l124.051,124.051
		c6.266,6.266,6.266,16.459,0,22.719s-16.459,6.266-22.719,0L44.982,67.713v58.542c0,4.293-1.671,8.323-4.704,11.363
		c-3.033,3.04-7.07,4.704-11.363,4.704c-8.599,0-16.061-7.481-16.067-16.067V29.461l0.019-0.694c0.013-0.983,0.103-1.986,0.456-3.49
		l0.476-1.6c0.09-0.296,0.148-0.591,0.283-0.9c0.129-0.308,0.302-0.591,0.463-0.874l1.009-1.889c0.585-0.88,1.253-1.71,1.999-2.449
		c0.713-0.72,1.549-1.395,2.873-2.224l1.459-0.778c0.302-0.174,0.598-0.36,0.861-0.469c0.289-0.116,0.598-0.186,0.9-0.276
		l2.134-0.649c1.028-0.199,2.069-0.315,3.149-0.315h97.322C134.835,12.86,142.31,20.354,142.31,28.927z"/>
</g>
<g>
</g>
<g>
</g>
<g>
</g>
<g>
</g>
<g>
</g>
<g>
</g>
<g>
</g>
<g>
</g>
<g>
</g>
<g>
</g>
<g>
</g>
<g>
</g>
<g>
</g>
<g>
</g>
<g>
</g>
</svg>
