<?xml version="1.0" standalone="no"?>
<!DOCTYPE svg PUBLIC "-//W3C//DTD SVG 20010904//EN"
 "http://www.w3.org/TR/2001/REC-SVG-20010904/DTD/svg10.dtd">
<svg version="1.0" xmlns="http://www.w3.org/2000/svg"
 width="32.000000pt" height="32.000000pt" viewBox="0 0 32.000000 32.000000"
 preserveAspectRatio="xMidYMid meet">

<g transform="translate(0.000000,32.000000) scale(0.100000,-0.100000)"
fill="#000000" stroke="none">
<path d="M108 275 c-35 -33 -55 -45 -77 -45 l-31 0 0 -70 0 -70 30 0 c23 0 44
-12 79 -45 26 -25 53 -45 60 -45 8 0 11 46 11 160 0 121 -3 160 -12 160 -7 0
-34 -21 -60 -45z"/>
<path d="M200 270 c0 -5 8 -10 19 -10 25 0 69 -42 77 -74 3 -14 3 -38 0 -52
-8 -32 -52 -74 -77 -74 -11 0 -19 -4 -19 -10 0 -34 83 11 105 56 19 40 19 68
0 108 -22 45 -105 90 -105 56z"/>
<path d="M200 220 c0 -5 9 -14 20 -20 13 -7 20 -21 20 -40 0 -19 -7 -33 -20
-40 -29 -16 -25 -32 5 -18 46 21 46 95 0 116 -14 7 -25 8 -25 2z"/>
</g>
</svg>
