<svg id="Capa_1" xmlns="http://www.w3.org/2000/svg" xmlns:xlink="http://www.w3.org/1999/xlink" viewBox="0 0 112.196 112.196" style="enable-background:new 0 0 112.196 112.196"><g><circle style="fill:#007ab9" cx="56.098" cy="56.097" r="56.098"/><g><path style="fill:#f1f2f2" d="M89.616 60.611v23.128H76.207V62.161c0-5.418-1.936-9.118-6.791-9.118-3.705.0-5.906 2.491-6.878 4.903-.353.862-.444 2.059-.444 3.268v22.524H48.684c0 0 .18-36.546.0-40.329h13.411v5.715c-.027.045-.065.089-.089.132h.089v-.132c1.782-2.742 4.96-6.662 12.085-6.662C83.002 42.462 89.616 48.226 89.616 60.611v0zM34.656 23.969c-4.587.0-7.588 3.011-7.588 6.967.0 3.872 2.914 6.97 7.412 6.97h.087c4.677.0 7.585-3.098 7.585-6.97C42.063 26.98 39.244 23.969 34.656 23.969v0zm-6.791 59.77H41.27V43.409H27.865V83.739z"/></g></g><g/><g/><g/><g/><g/><g/><g/><g/><g/><g/><g/><g/><g/><g/><g/></svg>